<?xml version="1.0" encoding="UTF-8"?>
<svg id="Layer_2" data-name="Layer 2" xmlns="http://www.w3.org/2000/svg" viewBox="0 0 183.34 83.35">
  <defs>
    <style>
      .cls-1 {
        fill: #5371e9;
      }
    </style>
  </defs>
  <g id="Layer_1-2" data-name="Layer 1">
    <path class="cls-1" d="M183.29,39.54C182.61,17.86,163.43-.43,141.67,0h0c-54.08-.37-54.29,69.39-100.46,69.44-15.28-.25-27.57-12.84-27.32-28.23.25-15.28,12.84-27.56,28.23-27.31,20.99.24,33.01,22.71,24.6,39.9-.55,1.12.88,2.16,1.77,1.29,4.33-4.27,8.31-9.48,12.48-15.22,1.38-1.9,1.91-4.31,1.42-6.6C72.08-14.44,1.6-9.46,0,41.67h0c-.41,22.55,19.04,42.09,41.67,41.67,53.93.36,54.24-68.88,100-69.45,15.34,0,27.78,12.44,27.78,27.78s-12.44,27.78-27.78,27.78c-21.24.08-33.54-22.57-25.06-39.9.55-1.12-.88-2.16-1.77-1.29-4.33,4.27-8.31,9.48-12.48,15.22-1.38,1.9-1.91,4.31-1.42,6.6,10.32,47.69,80.8,42.72,82.4-8.42h0c0-.72-.02-1.43-.05-2.14Z"/>
  </g>
</svg>