<?xml version="1.0" encoding="UTF-8"?>
<svg id="Layer_1" data-name="Layer 1" xmlns="http://www.w3.org/2000/svg" viewBox="0 0 500 250">
  <defs>
    <style>
      .cls-1 {
        fill: #fff;
      }
    </style>
  </defs>
  <path class="cls-1" d="M447.86,120.39c-1.47-46.8-42.88-86.31-89.87-85.37h0c-116.8-.8-117.24,149.87-216.95,149.97-33-.53-59.53-27.73-58.99-60.98.53-33,27.73-59.53,60.97-58.99,46.19.54,72.26,50.92,52.05,88.27-1.08,1.99,1.48,3.96,3.12,2.41,10.31-9.79,19.65-22.08,29.53-35.69,2.46-3.39,3.4-7.66,2.57-11.76C209.1,3.73,55.51,14.07,52.04,125h0c-.88,48.69,41.12,90.9,89.98,89.98,116.46.77,117.13-148.75,215.96-149.98,33.13,0,59.99,26.86,59.99,59.99s-26.86,59.99-59.99,59.99c-46.73.19-73.43-50.62-53.04-88.28,1.07-1.99-1.49-3.96-3.12-2.4-10.31,9.79-19.65,22.08-29.53,35.69-2.46,3.39-3.4,7.66-2.57,11.76,21.19,104.52,174.78,94.18,178.24-16.76h0c0-1.55-.04-3.08-.12-4.62Z"/>
</svg>