<?xml version="1.0" encoding="UTF-8"?>
<svg id="Layer_1" data-name="Layer 1" xmlns="http://www.w3.org/2000/svg" viewBox="0 0 1100 550">
  <defs>
    <style>
      .cls-1 {
        fill: #fff;
      }
    </style>
  </defs>
  <path class="cls-1" d="M1034.85,147.73h0c-8.37,0-15.15,6.78-15.15,15.15v75.76c0,7.09-1.22,13.9-3.47,20.22-3.47,9.83-9.41,18.48-17.07,25.25-10.67,9.43-24.7,15.14-40.07,15.14s-29.41-5.71-40.08-15.14c-7.65-6.75-13.59-15.42-17.07-25.24-2.24-6.33-3.45-13.14-3.45-20.23v-75.76c0-8.37-6.78-15.15-15.15-15.15h0c-8.37,0-15.15,6.78-15.15,15.15v75.76s0,0,0,0c0,6.2-1.26,60.61-44.85,60.61-14.81,0-28.13-5.19-42.83-16.75,16.58-20.2,30.6-46.24,41.86-77.81,15.54-43.58,17.27-110.88-10.14-149.76-13.1-18.59-31.48-28.41-53.13-28.41s-40.02,9.82-53.13,28.41c-27.41,38.88-25.69,106.18-10.14,149.76,11.31,31.7,25.32,57.77,41.83,77.87-18.96,15.39-43.73,28.06-69.47,39.84v-83.76s0,0,0,0c0-50.21-40.7-90.91-90.91-90.91s-90.91,40.7-90.91,90.91h0v41.98c0,4.66-1.59,9.23-4.73,12.67-3.62,3.97-8.66,6.08-13.98,5.95-9.74-.27-17.66-8.73-17.66-18.87v-41.73s0-.04,0-.05c0-1.38-.04-2.76-.1-4.13,0-.18-.01-.37-.02-.55-.06-1.21-.15-2.42-.26-3.61-.03-.39-.07-.78-.11-1.17-.1-.97-.22-1.93-.35-2.88-2.63-19.61-11.45-37.7-25.54-51.85-14.22-14.29-32.47-23.22-52.3-25.84-.7-.09-1.41-.18-2.12-.26-.6-.07-1.21-.13-1.82-.18-1.19-.11-2.38-.2-3.57-.26-.16,0-.32-.01-.48-.02-1.4-.06-2.81-.1-4.23-.1,0,0,0,0-.01,0-62.31,0-93.69,43.59-121.39,82.06-26.83,37.27-50.01,69.46-96.8,69.46h0c-32.47,0-58.97-25.52-60.53-57.6,0-.07,0-.14,0-.21-.04-.97-.07-1.94-.07-2.92.06-32.27,25.95-59.18,58.19-60.44,34.57-1.34,63.02,26.29,63.02,60.56,0,10.48-2.66,20.33-7.34,28.93-1.08,1.98,1.5,3.94,3.14,2.4,10.61-9.99,20.18-22.6,30.32-36.58,2.4-3.31,3.37-7.46,2.63-11.47-7.85-42.21-44.86-74.18-89.35-74.18-23.3,0-44.52,8.76-60.61,23.15-18.61,16.64-30.3,40.84-30.3,67.76v196.49c0,8.19,6.29,15.25,14.47,15.61,8.68.38,15.84-6.54,15.84-15.14v-129.02c14.47,12.93,32.52,20.75,51.94,22.55.22.02.44.03.65.05,1.2.1,2.4.2,3.6.25,1.46.07,2.93.11,4.41.11,0,0,0,0,0,0,0,0,0,0,0,0,62.31,0,93.69-43.59,121.39-82.06,26.83-37.27,50.01-69.46,96.79-69.46h0c31.93,0,58.09,24.7,60.42,56.04.02.27.04.54.06.81.04.63.06,1.27.08,1.91.01.47.03.93.03,1.4,0,.93,0,1.87-.03,2.81-1.19,31.41-26.79,57.01-58.2,58.2-34.55,1.31-62.97-26.31-62.97-60.56,0-10.48,2.66-20.34,7.34-28.93,1.08-1.98-1.5-3.94-3.14-2.4-10.61,9.99-20.18,22.6-30.33,36.59-2.4,3.3-3.37,7.45-2.63,11.47,7.78,41.83,44.2,73.6,88.15,74.17,26,.34,49.75-10.48,66.62-27.99,7.68,16.08,23.76,27.47,42.32,27.98.46.01.92.02,1.37.02,12.7,0,24.65-4.85,33.79-13.73,4.2-4.09,7.56-8.79,10-13.92,16.52,17.05,39.66,27.65,65.28,27.65,23.29,0,44.52-8.76,60.61-23.16v29.5c-29.54,13.02-57.3,25.53-79.16,41.29-28.3,20.4-42.05,43.48-42.05,70.54,0,20.47,8.04,39.66,22.64,54.02,14.29,14.05,33.1,21.74,53.1,21.74.43,0,.87,0,1.3-.01,41.06-.69,74.47-35.11,74.47-76.74v-91.09c32.88-14.63,65.7-30.31,90.9-51.48h0c21.08,17.32,41.52,25.39,64.25,25.39,26.49,0,47.55-11.96,60.89-34.58.52-.88,1.02-1.77,1.5-2.66,3.76,5.13,8.03,9.86,12.76,14.09,1.13,1.02,2.28,2,3.45,2.93,15.61,12.65,35.5,20.22,57.15,20.22s41.53-7.56,57.14-20.21c1.18-.95,2.34-1.93,3.47-2.95v52.54c0,33.19-26.31,60.92-59.5,61.51-29.75.53-54.71-20.36-60.47-48.29-1.49-7.21-7.99-12.53-15.35-12.3-9.34.29-16.26,8.94-14.38,18.18,3.96,19.53,14.19,36.78,28.48,49.57,16.09,14.4,37.32,23.15,60.61,23.15s44.52-8.75,60.61-23.15c18.59-16.64,30.3-40.82,30.3-67.76v-196.97c0-8.37-6.78-15.15-15.15-15.15ZM637.88,446.73c0,25.2-20.04,46.03-44.67,46.45-12.27.17-23.9-4.42-32.65-13.04-8.76-8.62-13.58-20.12-13.58-32.41,0-34.8,42.21-56.89,90.91-78.69v77.69ZM577.27,299.24c-33.47,0-60.61-27.13-60.61-60.61s27.13-60.61,60.61-60.61,60.61,27.13,60.61,60.61-27.13,60.61-60.61,60.61ZM759.05,260.72c-13.39-17.12-25.17-39.54-34.68-66.21-14.77-41.41-11.91-96.19,6.37-122.12,7.39-10.48,16.66-15.57,28.36-15.57s20.97,5.09,28.36,15.57c18.28,25.93,21.14,80.71,6.37,122.12-9.48,26.58-21.29,48.99-34.77,66.21Z"/>
</svg>